<svg width="14" height="17" viewBox="0 0 14 17" fill="none" xmlns="http://www.w3.org/2000/svg">
<path d="M7 0C3.1325 0 0 0.447368 0 3.57895V12.5263C0 13.3137 0.34125 14.0205 0.875 14.5126V16.1053C0.875 16.5974 1.26875 17 1.75 17H2.625C3.10625 17 3.5 16.5974 3.5 16.1053V15.2105H10.5V16.1053C10.5 16.5974 10.8938 17 11.375 17H12.25C12.7312 17 13.125 16.5974 13.125 16.1053V14.5126C13.6587 14.0205 14 13.3137 14 12.5263V3.57895C14 0.447368 10.8675 0 7 0ZM11.9525 2.67526H2.0475C2.52875 2.20105 3.77125 1.78947 7 1.78947C10.2288 1.78947 11.4712 2.20105 11.9525 2.67526ZM12.25 4.46474V7.15789H1.75V4.46474H12.25ZM11.9525 13.1795L11.6988 13.4211H2.30125L2.0475 13.1795C1.95497 13.0988 1.88051 12.9987 1.82917 12.886C1.77784 12.7733 1.75084 12.6506 1.75 12.5263V8.94737H12.25V12.5263C12.25 12.8574 12.0662 13.0811 11.9525 13.1795Z" fill="#2F50C6"/>
</svg>
